# xmcd
# 
# Track frame offsets:
#     150
#     19535
#     36584
#     55970
# 
# Disc length: 970
# 
# Revision: 1
# Processed by: cddbd v1.5.1PL2 Copyright (c) Steve Scherf et al.
# Submitted via: BonkEnc v1.0beta3
# 
DISCID=2e03c804
DTITLE=平野 綾 - 冒険でしょでしょ？
DYEAR=1900
DGENRE=アニメ
TTITLE0=冒険でしょでしょ？
TTITLE1=風読みリボン
TTITLE2=冒険でしょでしょ？(off vocal)
TTITLE3=風読みリボン(off vocal)
EXTD=
EXTT0=
EXTT1=
EXTT2=
EXTT3=
PLAYORDER=
